<svg width="526" height="172" viewBox="0 0 526 172" fill="none" xmlns="http://www.w3.org/2000/svg">
<path fill-rule="evenodd" clip-rule="evenodd" d="M149.647 79.1742L120.935 86.1342L116.15 94.8344L120.935 100.925L119.195 119.196L91.7886 150.953L102.665 166.614H114.845L119.195 171.833H99.6196L83.0884 150.953L85.2632 141.817L71.7778 150.953L81.3481 166.614H90.0493L93.9643 171.833H62.6421L67.4272 166.614H74.8227L62.6421 149.212L33.4956 171.833H16.9653L35.6714 149.212L97.0093 119.196L88.3091 96.5746L91.7886 117.021L23.9253 149.212L67.4272 94.8344L76.563 72.6488L113.105 64.3832L149.647 79.1742ZM100.332 77.434C98.7378 77.434 97.4448 78.727 97.4448 80.3217C97.445 81.9161 98.738 83.2084 100.332 83.2084C101.927 83.2084 103.22 81.9161 103.22 80.3217C103.22 78.727 101.927 77.434 100.332 77.434Z" fill="#00E573"></path>
<path d="M85.2637 50.8973C46.0189 61.4131 42.1746 71.1866 41.8013 72.8387C41.765 72.9994 41.8017 73.1591 41.8953 73.2947C44.6685 77.3176 58.2604 77.7366 64.8177 77.4338L68.7329 69.6034L120.5 58.7279L123.111 65.2532C138.849 62.3023 145.526 55.2581 147.216 51.5425C147.384 51.1719 147.232 50.7569 146.869 50.5737C143.317 48.7827 123.937 40.5347 85.2637 50.8973Z" fill="#00E573"></path>
<path d="M110.496 39.1519C97.9671 39.1519 77.1441 46.4023 68.2987 50.0275V18.2709H64.3835L57.8581 12.1806H49.1577L36.9771 2.61013L49.1577 5.65528L57.8581 2.61013L76.9991 0L90.4847 7.39537L110.496 39.1519Z" fill="#00E573"></path>
<path d="M21.4193 94.6811L26.0846 107.289L38.6922 111.954L26.0846 116.619L21.4193 129.227L16.7541 116.619L4.14642 111.954L16.7541 107.289L21.4193 94.6811Z" fill="#00E573"></path>
<path d="M6.90917 73.9537L8.77527 78.9967L13.8183 80.8628L8.77527 82.7289L6.90917 87.772L5.04306 82.7289L0 80.8628L5.04306 78.9967L6.90917 73.9537Z" fill="#00E573"></path>
<path d="M40.0721 85.0083L41.9382 90.0514L46.9813 91.9175L41.9382 93.7836L40.0721 98.8266L38.206 93.7836L33.1629 91.9175L38.206 90.0514L40.0721 85.0083Z" fill="#00E573"></path>
<path fill-rule="evenodd" clip-rule="evenodd" d="M189.646 111.54V148.245H227.058H264.469V142.029V135.813H233.59H202.711V126.636V117.46H230.027H257.343V111.243V105.027H230.027H202.711V96.1467V87.2663H233.59H264.469V81.0499V74.8336H227.058H189.646V111.54ZM290.213 111.54L290.194 148.245H319.518C352.322 148.245 354.674 148.032 362.257 144.365C370.388 140.432 376.799 131.946 378.781 122.492C379.898 117.166 379.896 106.49 378.778 101.179C376.79 91.7432 370.325 82.8485 362.456 78.7256C355.333 74.9947 353.821 74.8555 320.255 74.8437L290.233 74.8336L290.213 111.54ZM405.205 111.54V148.245H411.144H417.082V111.54V74.8336H411.144H405.205V111.54ZM459.11 75.7092C448.165 78.7132 442.115 89.1175 444.374 101.052C445.736 108.25 449.64 112.949 456.764 115.966C459.332 117.053 461.324 117.164 483.293 117.449C505.198 117.732 507.19 117.843 508.896 118.872C511.549 120.473 512.688 122.746 512.685 126.431C512.683 130.013 511.334 132.749 508.735 134.449C507.248 135.42 505.146 135.532 485.399 135.684C463.814 135.851 463.683 135.845 461.025 134.5C458.776 133.363 458.164 132.657 457.165 130.047L455.977 126.945L449.809 126.939L443.641 126.932L444.041 130.331C445.112 139.416 451.268 145.794 460.748 147.642C463.193 148.118 471.378 148.269 487.153 148.129C509.593 147.93 510.081 147.901 513.544 146.521C522.514 142.947 527.223 132.854 525.169 121.604C523.833 114.288 519.867 109.286 513.329 106.672C510.144 105.4 509.092 105.336 486.263 105.04C465.04 104.764 462.305 104.62 460.59 103.685C458.063 102.309 456.654 99.5017 456.698 95.9342C456.736 92.8396 457.805 90.9084 460.659 88.783C462.232 87.6108 463.151 87.5558 483.615 87.3929C503.894 87.2319 505.044 87.2811 507.244 88.3994C509.487 89.5402 511.5 92.4779 511.5 94.608C511.5 95.4191 512.449 95.5547 518.108 95.5547H524.716L524.327 93.0386C523.309 86.4641 520.07 81.2412 515.055 78.0851C510.198 75.0278 508.286 74.8295 484.225 74.8863C467.894 74.9254 461.164 75.1456 459.11 75.7092ZM354.224 89.13C362.864 93.1682 367.163 101.895 366.432 113.908C365.915 122.396 362.599 128.477 356.499 132.123C350.993 135.414 350.813 135.436 326.078 135.664L303.067 135.877V111.541V87.2041L326.969 87.3835L350.87 87.5623L354.224 89.13Z" fill="white"></path>
</svg>