<svg width="172" height="172" viewBox="0 0 160 172" fill="none" xmlns="http://www.w3.org/2000/svg">
<path fill-rule="evenodd" clip-rule="evenodd" d="M149.647 79.1742L120.935 86.1342L116.15 94.8344L120.935 100.925L119.195 119.196L91.7886 150.953L102.665 166.614H114.845L119.195 171.833H99.6196L83.0884 150.953L85.2632 141.817L71.7778 150.953L81.3481 166.614H90.0493L93.9643 171.833H62.6421L67.4272 166.614H74.8227L62.6421 149.212L33.4956 171.833H16.9653L35.6714 149.212L97.0093 119.196L88.3091 96.5746L91.7886 117.021L23.9253 149.212L67.4272 94.8344L76.563 72.6488L113.105 64.3832L149.647 79.1742ZM100.332 77.434C98.7378 77.434 97.4448 78.727 97.4448 80.3217C97.445 81.9161 98.738 83.2084 100.332 83.2084C101.927 83.2084 103.22 81.9161 103.22 80.3217C103.22 78.727 101.927 77.434 100.332 77.434Z" fill="#00E573"></path>
<path d="M85.2637 50.8973C46.0189 61.4131 42.1746 71.1866 41.8013 72.8387C41.765 72.9994 41.8017 73.1591 41.8953 73.2947C44.6685 77.3176 58.2604 77.7366 64.8177 77.4338L68.7329 69.6034L120.5 58.7279L123.111 65.2532C138.849 62.3023 145.526 55.2581 147.216 51.5425C147.384 51.1719 147.232 50.7569 146.869 50.5737C143.317 48.7827 123.937 40.5347 85.2637 50.8973Z" fill="#00E573"></path>
<path d="M110.496 39.1519C97.9671 39.1519 77.1441 46.4023 68.2987 50.0275V18.2709H64.3835L57.8581 12.1806H49.1577L36.9771 2.61013L49.1577 5.65528L57.8581 2.61013L76.9991 0L90.4847 7.39537L110.496 39.1519Z" fill="#00E573"></path>
<path d="M21.4193 94.6811L26.0846 107.289L38.6922 111.954L26.0846 116.619L21.4193 129.227L16.7541 116.619L4.14642 111.954L16.7541 107.289L21.4193 94.6811Z" fill="#00E573"></path>
<path d="M6.90917 73.9537L8.77527 78.9967L13.8183 80.8628L8.77527 82.7289L6.90917 87.772L5.04306 82.7289L0 80.8628L5.04306 78.9967L6.90917 73.9537Z" fill="#00E573"></path>
<path d="M40.0721 85.0083L41.9382 90.0514L46.9813 91.9175L41.9382 93.7836L40.0721 98.8266L38.206 93.7836L33.1629 91.9175L38.206 90.0514L40.0721 85.0083Z" fill="#00E573"></path>
</svg>