<svg width="399" height="87" viewBox="0 0 399 87" fill="none" xmlns="http://www.w3.org/2000/svg">
<path fill-rule="evenodd" clip-rule="evenodd" d="M0 43.4854V86.9709H44.3208H88.6417V79.6064V72.242H52.0594H15.4771V61.3706V50.4992H47.8384H80.1996V43.1348V35.7703H47.8384H15.4771V25.2496V14.7289H52.0594H88.6417V7.36447V0H44.3208H0V43.4854ZM119.141 43.4854L119.118 86.9709H153.859C192.722 86.9709 195.508 86.7177 204.492 82.3734C214.125 77.7148 221.72 67.6612 224.068 56.4609C225.39 50.1513 225.388 37.5034 224.064 31.2113C221.709 20.0328 214.049 9.49526 204.727 4.61086C196.289 0.190778 194.497 0.0259498 154.732 0.0119222L119.165 0L119.141 43.4854ZM255.372 43.4854V86.9709H262.408H269.443V43.4854V0H262.408H255.372V43.4854ZM319.234 1.03734C306.267 4.59613 299.099 16.9222 301.776 31.0612C303.389 39.5886 308.014 45.1547 316.454 48.729C319.496 50.0174 321.856 50.1492 347.883 50.4859C373.834 50.8219 376.194 50.953 378.214 52.1727C381.358 54.0692 382.708 56.7618 382.704 61.1279C382.701 65.3705 381.104 68.6123 378.024 70.626C376.263 71.7769 373.772 71.9095 350.378 72.0897C324.806 72.2875 324.651 72.2798 321.502 70.687C318.838 69.3396 318.113 68.5036 316.929 65.4112L315.522 61.7367L308.214 61.729L300.907 61.7213L301.381 65.7479C302.65 76.5112 309.943 84.0672 321.173 86.2555C324.07 86.8201 333.767 86.9989 352.456 86.8334C379.041 86.5977 379.619 86.5627 383.721 84.9278C394.349 80.6943 399.927 68.7372 397.494 55.4089C395.911 46.7419 391.212 40.8153 383.466 37.7194C379.694 36.2114 378.447 36.1357 351.401 35.785C326.258 35.4582 323.019 35.2877 320.986 34.1803C317.994 32.5496 316.324 29.2243 316.376 24.9978C316.421 21.3317 317.688 19.0438 321.069 16.5259C322.932 15.1372 324.021 15.0719 348.264 14.879C372.289 14.6883 373.651 14.7465 376.257 16.0714C378.914 17.4229 381.3 20.9032 381.3 23.4267C381.3 24.3876 382.423 24.5482 389.129 24.5482H396.957L396.496 21.5674C395.29 13.7786 391.453 7.59102 385.512 3.85197C379.757 0.230055 377.493 -0.00491718 348.986 0.0624151C329.64 0.108706 321.667 0.369629 319.234 1.03734ZM194.975 16.9369C205.21 21.721 210.304 32.0593 209.438 46.291C208.826 56.3466 204.897 63.5519 197.67 67.871C191.147 71.7699 190.934 71.7952 161.63 72.0659L134.37 72.3177V43.4869V14.6553L162.686 14.8678L191.002 15.0796L194.975 16.9369Z" fill="white"></path>
</svg>